<svg xmlns="http://www.w3.org/2000/svg" viewBox="0 0 57.28 78.26"><defs><style>.cls-1{fill:#886026;}</style></defs><g id="Layer_2" data-name="Layer 2"><g id="Layer_1-2" data-name="Layer 1"><path class="cls-1" d="M53.3,76.33c0,2.57,4,2.57,4,0V41a2,2,0,0,0-2-2h-6.1c-2.57,0-2.57,4,0,4h6.1l-2-2V76.33"/><path class="cls-1" d="M15.55,76.33c0,2.57,4,2.57,4,0V34.47h-4V76.33"/><path class="cls-1" d="M19.53,29.81V22.59c0-2.57-4-2.57-4,0v7.22Z"/><path class="cls-1" d="M0,76.33c0,2.57,4,2.57,4,0v-14H0v14"/><path class="cls-1" d="M27.68,76.33c0,2.57,4,2.57,4,0V57h-4V76.33"/><path class="cls-1" d="M31.67,52.32V1.92c0-2.56-4-2.56-4,0v50.4Z"/><path class="cls-1" d="M41.74,25.15V22.59c0-2.57-4-2.57-4,0v2.56Z"/><path class="cls-1" d="M37.75,76.33c0,2.57,4,2.57,4,0V31.19h-4V76.33"/><polygon class="cls-1" points="0 57.67 3.99 57.67 3.99 43.89 0 43.89 0 45.34 0 57.67"/></g></g></svg>