<svg xmlns="http://www.w3.org/2000/svg" viewBox="0 0 285.93 66.76"><defs><style>.cls-1{fill:#886026;}</style></defs><g id="Layer_2" data-name="Layer 2"><g id="Layer_1-2" data-name="Layer 1"><path class="cls-1" d="M116.47,5.62a3.1,3.1,0,0,0,1.47.39c.76,0,1.18-.38,1.18-.94s-.34-.83-1.12-1.17c-1-.42-1.68-1-1.68-2A2,2,0,0,1,118.62,0a3.19,3.19,0,0,1,1.45.31l-.27,1A2.62,2.62,0,0,0,118.59,1c-.74,0-1.06.42-1.06.82s.36.77,1.2,1.15c1.09.48,1.6,1.1,1.6,2,0,1.13-.85,2-2.45,2a3.5,3.5,0,0,1-1.66-.39Zm9.08,1.3h1.2V1.12h1.75v-1h-4.68v1h1.73Zm-13.36-4H109.9V1.09h2.42v-1H108.7V6.92h3.76v-1H109.9v-2h2.29Zm30.52,4h1.14L143.46.09H142l-.86,2.75c-.24.83-.45,1.63-.62,2.38h0c-.15-.77-.36-1.55-.59-2.38L139.06.09h-1.49l-.46,6.83h1.1l.14-2.7c.05-.89.09-1.93.12-2.79h0c.16.84.39,1.74.63,2.56L140,6.84h.9l.91-2.9c.26-.8.51-1.7.71-2.51h0c0,.88,0,1.9.08,2.75Zm10.79,0h1.15l-.4-6.83h-1.48l-.86,2.75c-.24.83-.45,1.63-.62,2.38h0c-.16-.77-.36-1.55-.6-2.38L149.85.09h-1.49l-.45,6.83H149l.15-2.7c0-.89.09-1.93.11-2.79h0c.16.84.39,1.74.63,2.56l.84,2.85h.89l.91-2.9c.26-.8.51-1.7.71-2.51h0c0,.88,0,1.9.08,2.75Zm10,0-1.86-3.49L163.4.09h-1.33l-.65,1.4c-.17.4-.3.71-.47,1.14h0c-.16-.39-.31-.73-.5-1.13L159.76.09h-1.34l1.75,3.36-1.81,3.47h1.32l.61-1.37c.23-.48.39-.86.55-1.27h0c.18.41.35.78.6,1.26l.67,1.38Zm8.38,0L170,3.43,171.78.09h-1.33l-.64,1.4c-.18.4-.31.71-.48,1.14h0c-.16-.39-.31-.73-.5-1.13L168.14.09H166.8l1.75,3.36-1.81,3.47h1.32l.61-1.37c.23-.48.39-.86.55-1.27h0c.18.41.35.78.6,1.26l.67,1.38ZM176.93.09h-1.2V6.92h1.2ZM53,60.83l.3-.22a4.2,4.2,0,0,0,.41.72,17.66,17.66,0,0,0,24.59.78,21.51,21.51,0,0,0,.15-30.93,17.24,17.24,0,0,0-22.71-.87c-1,.81-1.93,1.63-2.79,2.36V9.37L46,11.07V65.86H53v-5m0-14q0-4.78,0-9.58a2.43,2.43,0,0,1,.17-1.12c2.23-4,6.5-7.59,12-7.37,5.31.2,8.6,3.29,10.64,7.9a24.94,24.94,0,0,1,1.83,12,21.4,21.4,0,0,1-3,10.18c-5,8-15.6,7.31-20.73,0a4.67,4.67,0,0,1-.93-2.94c.07-3,0-6,0-9M237.29,9.39l-6.88,1.69V33.22a6.1,6.1,0,0,1-.5-.53c-6.37-8.25-19.27-8.38-26.39-.07a21.71,21.71,0,0,0,0,28,17.71,17.71,0,0,0,23.41,3c1.19-.84,2.25-1.85,3.5-2.89v5.21h6.81ZM230.46,46.8q0,4.74,0,9.48a2.74,2.74,0,0,1-.22,1.22c-3.46,6.23-10.58,8.64-16.46,5.84a12.63,12.63,0,0,1-6.54-7.77c-2.27-6.74-2.28-13.48.86-20,4.34-8.92,14.63-8.76,20.14-2.4.28.32.53.67.8,1a6,6,0,0,1,1.46,4.29c-.13,2.76,0,5.53,0,8.3m-72.34-20c-2,.49-3.93,1-5.84,1.39-.84.18-1.13.51-1.13,1.41,0,11.75,0,23.5,0,35.25,0,.33,0,.67,0,1h6.92V64.7c0-8.34.09-16.68-.06-25A7.89,7.89,0,0,1,160.25,34a14.28,14.28,0,0,1,7.62-4.63c6.62-1.56,12.34,2.53,12.13,9.46-.26,8.58-.07,17.18-.07,25.77v1.25h6.93a3.35,3.35,0,0,0,.06-.47c0-8.62.07-17.25,0-25.87a12.35,12.35,0,0,0-6.62-11.27c-6.85-3.86-16.71-1.45-21.42,5.17l-.55.78-.18-.1V26.84m-41.43-.43c-1.06.1-2.2.15-3.32.32C97.26,29.15,91.73,47.05,100,58.45c5.19,7.13,12.61,9.42,21,7.82,14.21-2.7,19.59-17.28,14.28-28.48-3.66-7.72-10.24-11-18.64-11.38M130,44.52c0,6.58-.65,11-3.12,14.88-5.12,8.11-16.31,7.66-20.81-.84-2.45-4.64-2.88-9.65-2.51-14.77a21.33,21.33,0,0,1,2.92-9.89c5.16-8.27,16.35-7.86,20.93.75A22.39,22.39,0,0,1,130,44.52M37.92,56.05H20.35l1,1V54a1,1,0,0,0-2,0v3a1,1,0,0,0,1,1H37.92a1,1,0,0,0,0-2m0-18.75H17.12v2h20.8a1,1,0,0,0,0-2m-23.11,0H11.22a1,1,0,0,0,0,2h3.59Zm23.11-7.73H31v2h7a1,1,0,0,0,0-2m0,13.76H28.31v2h9.61a1,1,0,0,0,0-2M26,43.33H1a1,1,0,0,0,0,2H26Zm-13.5,5H11.22a1,1,0,0,0,0,2h1.27Zm25.43,0H15.5v2H37.92a1,1,0,0,0,0-2m236.79-11h-3.59v2h3.59a1,1,0,0,0,0-2m-5.9,0H248a1,1,0,0,0,0,2h20.8Zm-3.23-7.73h-8.3v2h7.31v2a1,1,0,0,0,2,0v-3a1,1,0,0,0-1-1m-10.62,0h-7a1,1,0,0,0,0,2h7Zm2.66,13.76H248a1,1,0,0,0,0,2h9.61Zm27.36,0h-25v2h25a1,1,0,0,0,0-2m-14.54,5H248a1,1,0,0,0,0,2h22.43Zm4.27,0h-1.27v2h1.27a1,1,0,0,0,0-2M22.53,29.57h-.72v2h6.84v-2ZM263.24,56.05H248a1,1,0,0,0,0,2h15.23Z"/></g></g></svg>